<svg width="12" height="10" viewBox="0 0 12 10" fill="none" xmlns="http://www.w3.org/2000/svg">
<path fill-rule="evenodd" clip-rule="evenodd" d="M1.33317 5.66683H9.24317L6.82117 8.5735C6.58517 8.85616 6.62384 9.27683 6.9065 9.51216C7.18984 9.74816 7.60984 9.7095 7.84584 9.42683L11.1792 5.42683C11.2052 5.3955 11.2178 5.35883 11.2372 5.32416C11.2532 5.29616 11.2725 5.27216 11.2845 5.2415C11.3145 5.16483 11.3325 5.08416 11.3325 5.00283C11.3325 5.00216 11.3332 5.00083 11.3332 5.00016C11.3332 4.9995 11.3325 4.99816 11.3325 4.9975C11.3325 4.91616 11.3145 4.8355 11.2845 4.75883C11.2725 4.72816 11.2532 4.70416 11.2372 4.67616C11.2178 4.6415 11.2052 4.60483 11.1792 4.5735L7.84584 0.573496C7.71317 0.415496 7.52384 0.333496 7.33317 0.333496C7.1825 0.333496 7.03117 0.384163 6.9065 0.488163C6.62384 0.723496 6.58517 1.14416 6.82117 1.42683L9.24317 4.3335H1.33317C0.965171 4.3335 0.666504 4.63216 0.666504 5.00016C0.666504 5.36816 0.965171 5.66683 1.33317 5.66683Z" fill="#25A59E"/>
</svg>
