<svg width="84" height="13" viewBox="0 0 84 13" fill="none" xmlns="http://www.w3.org/2000/svg">
<mask id="path-1-outside-1_9622_57" maskUnits="userSpaceOnUse" x="0" y="0" width="84" height="13" fill="black">
<rect fill="white" width="84" height="13"/>
<path d="M12.36 4.89V8.61C12.36 9.68 12.39 10.41 12.45 10.8C12.52 11.19 12.615 11.435 12.735 11.535C12.965 11.725 13.33 11.82 13.83 11.82L13.86 12H9.84L9.87 11.82C10.36 11.82 10.72 11.73 10.95 11.55C11.14 11.4 11.25 10.91 11.28 10.08C11.3 9.75 11.31 9.26 11.31 8.61V2.265L7.11 11.85L2.775 3.735V8.58C2.775 9.58 2.82 10.305 2.91 10.755C3.01 11.195 3.165 11.485 3.375 11.625C3.585 11.755 3.935 11.82 4.425 11.82L4.455 12H0.765L0.795 11.82C1.165 11.82 1.44 11.795 1.62 11.745C1.81 11.685 1.97 11.535 2.1 11.295C2.23 11.055 2.31 10.735 2.34 10.335C2.38 9.935 2.4 9.35 2.4 8.58V4.905C2.4 4.135 2.38 3.55 2.34 3.15C2.31 2.75 2.23 2.43 2.1 2.19C1.97 1.95 1.81 1.805 1.62 1.755C1.44 1.695 1.165 1.665 0.795 1.665L0.765 1.5H2.775L7.41 10.245L11.235 1.5H13.86L13.83 1.665C13.33 1.665 12.965 1.76 12.735 1.95C12.485 2.16 12.36 3.14 12.36 4.89ZM15.2045 8.46C15.2045 7.41 15.5045 6.53 16.1045 5.82C16.7045 5.11 17.5195 4.755 18.5495 4.755C19.5795 4.755 20.4095 5.11 21.0395 5.82C21.6695 6.53 21.9845 7.41 21.9845 8.46C21.9845 9.51 21.6795 10.39 21.0695 11.1C20.4695 11.8 19.6545 12.15 18.6245 12.15C17.5945 12.15 16.7645 11.795 16.1345 11.085C15.5145 10.375 15.2045 9.5 15.2045 8.46ZM16.9295 10.89C17.3295 11.53 17.8945 11.85 18.6245 11.85C19.3545 11.85 19.9045 11.535 20.2745 10.905C20.6545 10.275 20.8445 9.465 20.8445 8.475C20.8445 7.475 20.6445 6.655 20.2445 6.015C19.8445 5.375 19.2795 5.055 18.5495 5.055C17.8295 5.055 17.2795 5.375 16.8995 6.015C16.5295 6.645 16.3445 7.455 16.3445 8.445C16.3445 9.435 16.5395 10.25 16.9295 10.89ZM27.8079 4.68C28.0579 4.68 28.2779 4.735 28.4679 4.845C28.6579 4.955 28.7529 5.105 28.7529 5.295C28.7529 5.485 28.6929 5.635 28.5729 5.745C28.4529 5.855 28.3179 5.91 28.1679 5.91C28.0179 5.91 27.8279 5.845 27.5979 5.715C27.3779 5.585 27.1429 5.52 26.8929 5.52C26.5029 5.52 26.1829 5.88 25.9329 6.6C25.6929 7.32 25.5729 8.155 25.5729 9.105C25.5729 10.385 25.6379 11.16 25.7679 11.43C25.8079 11.52 25.8829 11.605 25.9929 11.685C26.1029 11.755 26.2179 11.795 26.3379 11.805C26.4579 11.815 26.6279 11.82 26.8479 11.82L26.8779 12H23.2329L23.2629 11.82C23.5829 11.82 23.8129 11.805 23.9529 11.775C24.1029 11.735 24.2279 11.61 24.3279 11.4C24.4279 11.19 24.4829 10.93 24.4929 10.62C24.5129 10.3 24.5229 9.795 24.5229 9.105V8.235C24.5229 6.845 24.4829 6.055 24.4029 5.865C24.3329 5.675 24.2679 5.525 24.2079 5.415C24.1479 5.305 24.0579 5.23 23.9379 5.19C23.7179 5.13 23.4279 5.1 23.0679 5.1L23.0379 4.935C23.8879 4.815 24.7329 4.755 25.5729 4.755V6.96C25.6829 6.25 25.9279 5.695 26.3079 5.295C26.6979 4.885 27.1979 4.68 27.8079 4.68ZM35.2684 8.205H30.3484V8.46C30.3484 9.52 30.5734 10.33 31.0234 10.89C31.4734 11.44 32.0334 11.715 32.7034 11.715C33.7034 11.715 34.4234 11.315 34.8634 10.515L35.0884 10.635C34.5684 11.645 33.6984 12.15 32.4784 12.15C31.5784 12.15 30.8084 11.825 30.1684 11.175C29.5284 10.525 29.2084 9.65 29.2084 8.55C29.2084 7.44 29.4884 6.53 30.0484 5.82C30.6184 5.11 31.3734 4.755 32.3134 4.755C33.2634 4.755 33.9934 5.08 34.5034 5.73C35.0134 6.37 35.2684 7.195 35.2684 8.205ZM32.3584 5.055C31.7784 5.055 31.3184 5.305 30.9784 5.805C30.6484 6.295 30.4484 6.95 30.3784 7.77H34.1134C34.0434 5.96 33.4584 5.055 32.3584 5.055ZM45.4405 10.335C45.2805 10.855 45.0055 11.29 44.6155 11.64C44.2355 11.98 43.7655 12.15 43.2055 12.15C42.6555 12.15 42.1955 12.04 41.8255 11.82C41.4555 11.6 41.1705 11.31 40.9705 10.95C40.5705 10.26 40.3705 9.42 40.3705 8.43C40.3705 7.44 40.7105 6.58 41.3905 5.85C42.0705 5.12 42.9805 4.755 44.1205 4.755C44.6205 4.755 45.0755 4.815 45.4855 4.935V3.51C45.4855 2.76 45.4605 2.255 45.4105 1.995C45.3605 1.725 45.2805 1.56 45.1705 1.5C44.9705 1.38 44.6555 1.32 44.2255 1.32L44.1955 1.155C44.9155 1.035 45.6955 0.975 46.5355 0.975V8.67C46.5355 9.78 46.5705 10.51 46.6405 10.86C46.7105 11.2 46.8805 11.37 47.1505 11.37C47.3205 11.37 47.5455 11.3 47.8255 11.16L47.9005 11.31C47.8205 11.37 47.7155 11.445 47.5855 11.535C47.4555 11.615 47.1905 11.725 46.7905 11.865C46.3905 12.005 46.0055 12.075 45.6355 12.075C45.5055 11.535 45.4405 10.955 45.4405 10.335ZM41.8705 10.59C41.9905 10.92 42.1755 11.185 42.4255 11.385C42.6855 11.585 42.9955 11.685 43.3555 11.685C43.7255 11.685 44.0555 11.56 44.3455 11.31C44.6455 11.06 44.8705 10.74 45.0205 10.35C45.3305 9.6 45.4855 8.825 45.4855 8.025V5.73C45.0555 5.39 44.5855 5.22 44.0755 5.22C43.5655 5.22 43.1405 5.33 42.8005 5.55C42.4605 5.77 42.2005 6.06 42.0205 6.42C41.6805 7.09 41.5105 7.805 41.5105 8.565C41.5105 9.295 41.6305 9.97 41.8705 10.59ZM54.8534 8.205H49.9334V8.46C49.9334 9.52 50.1584 10.33 50.6084 10.89C51.0584 11.44 51.6184 11.715 52.2884 11.715C53.2884 11.715 54.0084 11.315 54.4484 10.515L54.6734 10.635C54.1534 11.645 53.2834 12.15 52.0634 12.15C51.1634 12.15 50.3934 11.825 49.7534 11.175C49.1134 10.525 48.7934 9.65 48.7934 8.55C48.7934 7.44 49.0734 6.53 49.6334 5.82C50.2034 5.11 50.9584 4.755 51.8984 4.755C52.8484 4.755 53.5784 5.08 54.0884 5.73C54.5984 6.37 54.8534 7.195 54.8534 8.205ZM51.9434 5.055C51.3634 5.055 50.9034 5.305 50.5634 5.805C50.2334 6.295 50.0334 6.95 49.9634 7.77H53.6984C53.6284 5.96 53.0434 5.055 51.9434 5.055ZM58.2455 4.905H60.0905V5.235H58.2455V10.95C58.2455 11.16 58.2955 11.33 58.3955 11.46C58.4955 11.58 58.6255 11.64 58.7855 11.64C59.1455 11.64 59.5705 11.535 60.0605 11.325L60.0905 11.49C59.3905 11.93 58.7705 12.15 58.2305 12.15C57.8805 12.15 57.6205 12.065 57.4505 11.895C57.2805 11.725 57.1955 11.43 57.1955 11.01V5.235H56.2955V4.905C56.8355 4.905 57.2105 4.755 57.4205 4.455C57.6405 4.145 57.8055 3.69 57.9155 3.09L58.2455 3.06V4.905ZM66.5755 7.155V8.67C66.5755 9.78 66.6105 10.51 66.6805 10.86C66.7505 11.2 66.9205 11.37 67.1905 11.37C67.3605 11.37 67.5855 11.3 67.8655 11.16L67.9405 11.31C67.8605 11.37 67.7555 11.445 67.6255 11.535C67.4955 11.615 67.2305 11.725 66.8305 11.865C66.4305 12.005 66.0455 12.075 65.6755 12.075C65.5755 11.655 65.5255 10.985 65.5255 10.065C65.3055 10.685 65.0155 11.19 64.6555 11.58C64.3055 11.96 63.8155 12.15 63.1855 12.15C62.5555 12.15 62.0555 11.985 61.6855 11.655C61.3255 11.315 61.1455 10.855 61.1455 10.275C61.1455 8.665 62.6055 7.855 65.5255 7.845V7.305C65.5255 6.585 65.4205 6.035 65.2105 5.655C65.0005 5.275 64.6105 5.085 64.0405 5.085C63.7205 5.085 63.4605 5.165 63.2605 5.325C63.0605 5.485 62.9255 5.66 62.8555 5.85C62.6855 6.37 62.4305 6.63 62.0905 6.63C61.7605 6.63 61.5955 6.445 61.5955 6.075C61.5955 5.695 61.8455 5.38 62.3455 5.13C62.8455 4.88 63.4505 4.755 64.1605 4.755C64.8705 4.755 65.4505 4.96 65.9005 5.37C66.3505 5.77 66.5755 6.365 66.5755 7.155ZM62.2855 10.335C62.2855 10.725 62.3805 11.05 62.5705 11.31C62.7605 11.56 63.0605 11.685 63.4705 11.685C63.8905 11.685 64.2705 11.485 64.6105 11.085C64.9505 10.675 65.1805 10.225 65.3005 9.735C65.4305 9.235 65.5055 8.72 65.5255 8.19C64.4155 8.2 63.5955 8.405 63.0655 8.805C62.5455 9.205 62.2855 9.715 62.2855 10.335ZM70.1653 2.955C69.9953 2.785 69.9103 2.585 69.9103 2.355C69.9103 2.125 69.9953 1.925 70.1653 1.755C70.3353 1.585 70.5353 1.5 70.7653 1.5C70.9953 1.5 71.1953 1.585 71.3653 1.755C71.5353 1.925 71.6203 2.125 71.6203 2.355C71.6203 2.585 71.5353 2.785 71.3653 2.955C71.1953 3.125 70.9953 3.21 70.7653 3.21C70.5353 3.21 70.3353 3.125 70.1653 2.955ZM71.3353 4.755V9.525C71.3353 10.575 71.3953 11.22 71.5153 11.46C71.6453 11.7 72.0053 11.82 72.5953 11.82L72.6253 12H68.9653L68.9953 11.82C69.5953 11.82 69.9603 11.7 70.0903 11.46C70.2203 11.21 70.2853 10.555 70.2853 9.495V8.445C70.2853 7.285 70.2503 6.52 70.1803 6.15C70.1203 5.77 70.0303 5.525 69.9103 5.415C69.6703 5.195 69.3003 5.085 68.8003 5.085L68.7703 4.92C69.6403 4.81 70.4953 4.755 71.3353 4.755ZM75.8261 0.959999V9.39C75.8261 10.5 75.8911 11.185 76.0211 11.445C76.1511 11.695 76.5111 11.82 77.1011 11.82L77.1311 12H73.4561L73.4861 11.82C74.0861 11.82 74.4511 11.695 74.5811 11.445C74.7111 11.195 74.7761 10.51 74.7761 9.39V3.66C74.7761 2.55 74.7161 1.88 74.5961 1.65C74.5561 1.58 74.4811 1.51 74.3711 1.44C74.2611 1.37 74.1411 1.33 74.0111 1.32C73.8911 1.31 73.7161 1.305 73.4861 1.305L73.4561 1.14C74.2061 1.02 74.9961 0.959999 75.8261 0.959999ZM78.6581 9.765C78.6581 10.415 78.8331 10.905 79.1831 11.235C79.5331 11.555 79.9481 11.715 80.4281 11.715C80.9181 11.715 81.3131 11.605 81.6131 11.385C81.9131 11.165 82.0631 10.87 82.0631 10.5C82.0631 10.12 81.9331 9.81 81.6731 9.57C81.4231 9.33 81.1181 9.135 80.7581 8.985C80.3981 8.835 80.0331 8.68 79.6631 8.52C79.3031 8.36 78.9931 8.125 78.7331 7.815C78.4831 7.505 78.3581 7.09 78.3581 6.57C78.3581 6.05 78.5881 5.62 79.0481 5.28C79.5181 4.93 80.0581 4.755 80.6681 4.755C81.5381 4.755 82.2181 4.895 82.7081 5.175C82.7081 5.635 82.6481 6.275 82.5281 7.095L82.3481 7.05C82.3481 6.39 82.1981 5.91 81.8981 5.61C81.5981 5.31 81.2331 5.16 80.8031 5.16C80.3831 5.16 80.0431 5.27 79.7831 5.49C79.5331 5.71 79.4081 6.01 79.4081 6.39C79.4081 6.76 79.5331 7.06 79.7831 7.29C80.0431 7.51 80.3531 7.695 80.7131 7.845C81.0731 7.995 81.4331 8.155 81.7931 8.325C82.1631 8.485 82.4731 8.72 82.7231 9.03C82.9831 9.33 83.1131 9.7 83.1131 10.14C83.1131 10.78 82.8631 11.275 82.3631 11.625C81.8631 11.975 81.2031 12.15 80.3831 12.15C79.5731 12.15 78.8881 11.935 78.3281 11.505C78.3281 11.005 78.3781 10.415 78.4781 9.735L78.6581 9.765Z"/>
</mask>
<path d="M12.36 4.89V8.61C12.36 9.68 12.39 10.41 12.45 10.8C12.52 11.19 12.615 11.435 12.735 11.535C12.965 11.725 13.33 11.82 13.83 11.82L13.86 12H9.84L9.87 11.82C10.36 11.82 10.72 11.73 10.95 11.55C11.14 11.4 11.25 10.91 11.28 10.08C11.3 9.75 11.31 9.26 11.31 8.61V2.265L7.11 11.85L2.775 3.735V8.58C2.775 9.58 2.82 10.305 2.91 10.755C3.01 11.195 3.165 11.485 3.375 11.625C3.585 11.755 3.935 11.82 4.425 11.82L4.455 12H0.765L0.795 11.82C1.165 11.82 1.44 11.795 1.62 11.745C1.81 11.685 1.97 11.535 2.1 11.295C2.23 11.055 2.31 10.735 2.34 10.335C2.38 9.935 2.4 9.35 2.4 8.58V4.905C2.4 4.135 2.38 3.55 2.34 3.15C2.31 2.75 2.23 2.43 2.1 2.19C1.97 1.95 1.81 1.805 1.62 1.755C1.44 1.695 1.165 1.665 0.795 1.665L0.765 1.5H2.775L7.41 10.245L11.235 1.5H13.86L13.83 1.665C13.33 1.665 12.965 1.76 12.735 1.95C12.485 2.16 12.36 3.14 12.36 4.89ZM15.2045 8.46C15.2045 7.41 15.5045 6.53 16.1045 5.82C16.7045 5.11 17.5195 4.755 18.5495 4.755C19.5795 4.755 20.4095 5.11 21.0395 5.82C21.6695 6.53 21.9845 7.41 21.9845 8.46C21.9845 9.51 21.6795 10.39 21.0695 11.1C20.4695 11.8 19.6545 12.15 18.6245 12.15C17.5945 12.15 16.7645 11.795 16.1345 11.085C15.5145 10.375 15.2045 9.5 15.2045 8.46ZM16.9295 10.89C17.3295 11.53 17.8945 11.85 18.6245 11.85C19.3545 11.85 19.9045 11.535 20.2745 10.905C20.6545 10.275 20.8445 9.465 20.8445 8.475C20.8445 7.475 20.6445 6.655 20.2445 6.015C19.8445 5.375 19.2795 5.055 18.5495 5.055C17.8295 5.055 17.2795 5.375 16.8995 6.015C16.5295 6.645 16.3445 7.455 16.3445 8.445C16.3445 9.435 16.5395 10.25 16.9295 10.89ZM27.8079 4.68C28.0579 4.68 28.2779 4.735 28.4679 4.845C28.6579 4.955 28.7529 5.105 28.7529 5.295C28.7529 5.485 28.6929 5.635 28.5729 5.745C28.4529 5.855 28.3179 5.91 28.1679 5.91C28.0179 5.91 27.8279 5.845 27.5979 5.715C27.3779 5.585 27.1429 5.52 26.8929 5.52C26.5029 5.52 26.1829 5.88 25.9329 6.6C25.6929 7.32 25.5729 8.155 25.5729 9.105C25.5729 10.385 25.6379 11.16 25.7679 11.43C25.8079 11.52 25.8829 11.605 25.9929 11.685C26.1029 11.755 26.2179 11.795 26.3379 11.805C26.4579 11.815 26.6279 11.82 26.8479 11.82L26.8779 12H23.2329L23.2629 11.82C23.5829 11.82 23.8129 11.805 23.9529 11.775C24.1029 11.735 24.2279 11.61 24.3279 11.4C24.4279 11.19 24.4829 10.93 24.4929 10.62C24.5129 10.3 24.5229 9.795 24.5229 9.105V8.235C24.5229 6.845 24.4829 6.055 24.4029 5.865C24.3329 5.675 24.2679 5.525 24.2079 5.415C24.1479 5.305 24.0579 5.23 23.9379 5.19C23.7179 5.13 23.4279 5.1 23.0679 5.1L23.0379 4.935C23.8879 4.815 24.7329 4.755 25.5729 4.755V6.96C25.6829 6.25 25.9279 5.695 26.3079 5.295C26.6979 4.885 27.1979 4.68 27.8079 4.68ZM35.2684 8.205H30.3484V8.46C30.3484 9.52 30.5734 10.33 31.0234 10.89C31.4734 11.44 32.0334 11.715 32.7034 11.715C33.7034 11.715 34.4234 11.315 34.8634 10.515L35.0884 10.635C34.5684 11.645 33.6984 12.15 32.4784 12.15C31.5784 12.15 30.8084 11.825 30.1684 11.175C29.5284 10.525 29.2084 9.65 29.2084 8.55C29.2084 7.44 29.4884 6.53 30.0484 5.82C30.6184 5.11 31.3734 4.755 32.3134 4.755C33.2634 4.755 33.9934 5.08 34.5034 5.73C35.0134 6.37 35.2684 7.195 35.2684 8.205ZM32.3584 5.055C31.7784 5.055 31.3184 5.305 30.9784 5.805C30.6484 6.295 30.4484 6.95 30.3784 7.77H34.1134C34.0434 5.96 33.4584 5.055 32.3584 5.055ZM45.4405 10.335C45.2805 10.855 45.0055 11.29 44.6155 11.64C44.2355 11.98 43.7655 12.15 43.2055 12.15C42.6555 12.15 42.1955 12.04 41.8255 11.82C41.4555 11.6 41.1705 11.31 40.9705 10.95C40.5705 10.26 40.3705 9.42 40.3705 8.43C40.3705 7.44 40.7105 6.58 41.3905 5.85C42.0705 5.12 42.9805 4.755 44.1205 4.755C44.6205 4.755 45.0755 4.815 45.4855 4.935V3.51C45.4855 2.76 45.4605 2.255 45.4105 1.995C45.3605 1.725 45.2805 1.56 45.1705 1.5C44.9705 1.38 44.6555 1.32 44.2255 1.32L44.1955 1.155C44.9155 1.035 45.6955 0.975 46.5355 0.975V8.67C46.5355 9.78 46.5705 10.51 46.6405 10.86C46.7105 11.2 46.8805 11.37 47.1505 11.37C47.3205 11.37 47.5455 11.3 47.8255 11.16L47.9005 11.31C47.8205 11.37 47.7155 11.445 47.5855 11.535C47.4555 11.615 47.1905 11.725 46.7905 11.865C46.3905 12.005 46.0055 12.075 45.6355 12.075C45.5055 11.535 45.4405 10.955 45.4405 10.335ZM41.8705 10.59C41.9905 10.92 42.1755 11.185 42.4255 11.385C42.6855 11.585 42.9955 11.685 43.3555 11.685C43.7255 11.685 44.0555 11.56 44.3455 11.31C44.6455 11.06 44.8705 10.74 45.0205 10.35C45.3305 9.6 45.4855 8.825 45.4855 8.025V5.73C45.0555 5.39 44.5855 5.22 44.0755 5.22C43.5655 5.22 43.1405 5.33 42.8005 5.55C42.4605 5.77 42.2005 6.06 42.0205 6.42C41.6805 7.09 41.5105 7.805 41.5105 8.565C41.5105 9.295 41.6305 9.97 41.8705 10.59ZM54.8534 8.205H49.9334V8.46C49.9334 9.52 50.1584 10.33 50.6084 10.89C51.0584 11.44 51.6184 11.715 52.2884 11.715C53.2884 11.715 54.0084 11.315 54.4484 10.515L54.6734 10.635C54.1534 11.645 53.2834 12.15 52.0634 12.15C51.1634 12.15 50.3934 11.825 49.7534 11.175C49.1134 10.525 48.7934 9.65 48.7934 8.55C48.7934 7.44 49.0734 6.53 49.6334 5.82C50.2034 5.11 50.9584 4.755 51.8984 4.755C52.8484 4.755 53.5784 5.08 54.0884 5.73C54.5984 6.37 54.8534 7.195 54.8534 8.205ZM51.9434 5.055C51.3634 5.055 50.9034 5.305 50.5634 5.805C50.2334 6.295 50.0334 6.95 49.9634 7.77H53.6984C53.6284 5.96 53.0434 5.055 51.9434 5.055ZM58.2455 4.905H60.0905V5.235H58.2455V10.95C58.2455 11.16 58.2955 11.33 58.3955 11.46C58.4955 11.58 58.6255 11.64 58.7855 11.64C59.1455 11.64 59.5705 11.535 60.0605 11.325L60.0905 11.49C59.3905 11.93 58.7705 12.15 58.2305 12.15C57.8805 12.15 57.6205 12.065 57.4505 11.895C57.2805 11.725 57.1955 11.43 57.1955 11.01V5.235H56.2955V4.905C56.8355 4.905 57.2105 4.755 57.4205 4.455C57.6405 4.145 57.8055 3.69 57.9155 3.09L58.2455 3.06V4.905ZM66.5755 7.155V8.67C66.5755 9.78 66.6105 10.51 66.6805 10.86C66.7505 11.2 66.9205 11.37 67.1905 11.37C67.3605 11.37 67.5855 11.3 67.8655 11.16L67.9405 11.31C67.8605 11.37 67.7555 11.445 67.6255 11.535C67.4955 11.615 67.2305 11.725 66.8305 11.865C66.4305 12.005 66.0455 12.075 65.6755 12.075C65.5755 11.655 65.5255 10.985 65.5255 10.065C65.3055 10.685 65.0155 11.19 64.6555 11.58C64.3055 11.96 63.8155 12.15 63.1855 12.15C62.5555 12.15 62.0555 11.985 61.6855 11.655C61.3255 11.315 61.1455 10.855 61.1455 10.275C61.1455 8.665 62.6055 7.855 65.5255 7.845V7.305C65.5255 6.585 65.4205 6.035 65.2105 5.655C65.0005 5.275 64.6105 5.085 64.0405 5.085C63.7205 5.085 63.4605 5.165 63.2605 5.325C63.0605 5.485 62.9255 5.66 62.8555 5.85C62.6855 6.37 62.4305 6.63 62.0905 6.63C61.7605 6.63 61.5955 6.445 61.5955 6.075C61.5955 5.695 61.8455 5.38 62.3455 5.13C62.8455 4.88 63.4505 4.755 64.1605 4.755C64.8705 4.755 65.4505 4.96 65.9005 5.37C66.3505 5.77 66.5755 6.365 66.5755 7.155ZM62.2855 10.335C62.2855 10.725 62.3805 11.05 62.5705 11.31C62.7605 11.56 63.0605 11.685 63.4705 11.685C63.8905 11.685 64.2705 11.485 64.6105 11.085C64.9505 10.675 65.1805 10.225 65.3005 9.735C65.4305 9.235 65.5055 8.72 65.5255 8.19C64.4155 8.2 63.5955 8.405 63.0655 8.805C62.5455 9.205 62.2855 9.715 62.2855 10.335ZM70.1653 2.955C69.9953 2.785 69.9103 2.585 69.9103 2.355C69.9103 2.125 69.9953 1.925 70.1653 1.755C70.3353 1.585 70.5353 1.5 70.7653 1.5C70.9953 1.5 71.1953 1.585 71.3653 1.755C71.5353 1.925 71.6203 2.125 71.6203 2.355C71.6203 2.585 71.5353 2.785 71.3653 2.955C71.1953 3.125 70.9953 3.21 70.7653 3.21C70.5353 3.21 70.3353 3.125 70.1653 2.955ZM71.3353 4.755V9.525C71.3353 10.575 71.3953 11.22 71.5153 11.46C71.6453 11.7 72.0053 11.82 72.5953 11.82L72.6253 12H68.9653L68.9953 11.82C69.5953 11.82 69.9603 11.7 70.0903 11.46C70.2203 11.21 70.2853 10.555 70.2853 9.495V8.445C70.2853 7.285 70.2503 6.52 70.1803 6.15C70.1203 5.77 70.0303 5.525 69.9103 5.415C69.6703 5.195 69.3003 5.085 68.8003 5.085L68.7703 4.92C69.6403 4.81 70.4953 4.755 71.3353 4.755ZM75.8261 0.959999V9.39C75.8261 10.5 75.8911 11.185 76.0211 11.445C76.1511 11.695 76.5111 11.82 77.1011 11.82L77.1311 12H73.4561L73.4861 11.82C74.0861 11.82 74.4511 11.695 74.5811 11.445C74.7111 11.195 74.7761 10.51 74.7761 9.39V3.66C74.7761 2.55 74.7161 1.88 74.5961 1.65C74.5561 1.58 74.4811 1.51 74.3711 1.44C74.2611 1.37 74.1411 1.33 74.0111 1.32C73.8911 1.31 73.7161 1.305 73.4861 1.305L73.4561 1.14C74.2061 1.02 74.9961 0.959999 75.8261 0.959999ZM78.6581 9.765C78.6581 10.415 78.8331 10.905 79.1831 11.235C79.5331 11.555 79.9481 11.715 80.4281 11.715C80.9181 11.715 81.3131 11.605 81.6131 11.385C81.9131 11.165 82.0631 10.87 82.0631 10.5C82.0631 10.12 81.9331 9.81 81.6731 9.57C81.4231 9.33 81.1181 9.135 80.7581 8.985C80.3981 8.835 80.0331 8.68 79.6631 8.52C79.3031 8.36 78.9931 8.125 78.7331 7.815C78.4831 7.505 78.3581 7.09 78.3581 6.57C78.3581 6.05 78.5881 5.62 79.0481 5.28C79.5181 4.93 80.0581 4.755 80.6681 4.755C81.5381 4.755 82.2181 4.895 82.7081 5.175C82.7081 5.635 82.6481 6.275 82.5281 7.095L82.3481 7.05C82.3481 6.39 82.1981 5.91 81.8981 5.61C81.5981 5.31 81.2331 5.16 80.8031 5.16C80.3831 5.16 80.0431 5.27 79.7831 5.49C79.5331 5.71 79.4081 6.01 79.4081 6.39C79.4081 6.76 79.5331 7.06 79.7831 7.29C80.0431 7.51 80.3531 7.695 80.7131 7.845C81.0731 7.995 81.4331 8.155 81.7931 8.325C82.1631 8.485 82.4731 8.72 82.7231 9.03C82.9831 9.33 83.1131 9.7 83.1131 10.14C83.1131 10.78 82.8631 11.275 82.3631 11.625C81.8631 11.975 81.2031 12.15 80.3831 12.15C79.5731 12.15 78.8881 11.935 78.3281 11.505C78.3281 11.005 78.3781 10.415 78.4781 9.735L78.6581 9.765Z" fill="#25A59E"/>
<path d="M12.45 10.8L12.2523 10.8304L12.2531 10.8353L12.45 10.8ZM12.735 11.535L12.607 11.6886L12.6076 11.6892L12.735 11.535ZM13.83 11.82L14.0273 11.7871L13.9994 11.62H13.83V11.82ZM13.86 12V12.2H14.0961L14.0573 11.9671L13.86 12ZM9.84 12L9.64272 11.9671L9.60391 12.2H9.84V12ZM9.87 11.82V11.62H9.70058L9.67272 11.7871L9.87 11.82ZM10.95 11.55L11.0733 11.7075L11.0739 11.707L10.95 11.55ZM11.28 10.08L11.0803 10.0679L11.0801 10.0728L11.28 10.08ZM11.31 2.265H11.51L11.1268 2.18473L11.31 2.265ZM7.11 11.85L6.93359 11.9442L7.12778 12.3077L7.29319 11.9303L7.11 11.85ZM2.775 3.735L2.95141 3.64076L2.575 3.735H2.775ZM2.91 10.755L2.71382 10.7942L2.71497 10.7993L2.91 10.755ZM3.375 11.625L3.264 11.7915L3.26973 11.7951L3.375 11.625ZM4.425 11.82L4.62228 11.7871L4.59443 11.62H4.425V11.82ZM4.455 12V12.2H4.69109L4.65228 11.9671L4.455 12ZM0.765 12L0.567721 11.9671L0.528908 12.2H0.765V12ZM0.795 11.82V11.62H0.625575L0.597721 11.7871L0.795 11.82ZM1.62 11.745L1.67356 11.9378L1.68023 11.9357L1.62 11.745ZM2.1 11.295L1.92414 11.1997L2.1 11.295ZM2.34 10.335L2.14093 10.3151L2.14056 10.32L2.34 10.335ZM2.34 3.15L2.1405 3.16496L2.14099 3.1699L2.34 3.15ZM2.1 2.19L1.92414 2.28526L2.1 2.19ZM1.62 1.755L1.55662 1.94513L1.5691 1.94841L1.62 1.755ZM0.795 1.665L0.598226 1.70078L0.628085 1.865H0.795V1.665ZM0.765 1.5V1.3H0.525358L0.568226 1.53578L0.765 1.5ZM2.775 1.5L2.95171 1.40634L2.89535 1.3H2.775V1.5ZM7.41 10.245L7.23329 10.3387L7.42726 10.7046L7.59324 10.3251L7.41 10.245ZM11.235 1.5V1.3H11.1042L11.0518 1.41985L11.235 1.5ZM13.86 1.5L14.0568 1.53578L14.0996 1.3H13.86V1.5ZM13.83 1.665V1.865H13.9969L14.0268 1.70078L13.83 1.665ZM12.735 1.95L12.6076 1.7958L12.6064 1.79686L12.735 1.95ZM12.16 4.89V8.61H12.56V4.89H12.16ZM12.16 8.61C12.16 9.67858 12.1897 10.4232 12.2523 10.8304L12.6477 10.7696C12.5903 10.3968 12.56 9.68142 12.56 8.61H12.16ZM12.2531 10.8353C12.2894 11.0373 12.3334 11.2097 12.3873 11.3486C12.4397 11.4837 12.5088 11.6068 12.607 11.6886L12.863 11.3814C12.8412 11.3632 12.8028 11.3138 12.7602 11.2039C12.7191 11.0978 12.6806 10.9527 12.6469 10.7647L12.2531 10.8353ZM12.6076 11.6892C12.8907 11.9231 13.3124 12.02 13.83 12.02V11.62C13.3476 11.62 13.0393 11.5269 12.8624 11.3808L12.6076 11.6892ZM13.6327 11.8529L13.6627 12.0329L14.0573 11.9671L14.0273 11.7871L13.6327 11.8529ZM13.86 11.8H9.84V12.2H13.86V11.8ZM10.0373 12.0329L10.0673 11.8529L9.67272 11.7871L9.64272 11.9671L10.0373 12.0329ZM9.87 12.02C10.3771 12.02 10.7912 11.9282 11.0733 11.7075L10.8267 11.3925C10.6488 11.5318 10.3429 11.62 9.87 11.62V12.02ZM11.0739 11.707C11.2275 11.5857 11.314 11.3637 11.3701 11.1138C11.429 10.8516 11.4647 10.5077 11.4799 10.0872L11.0801 10.0728C11.0653 10.4823 11.031 10.7984 10.9799 11.0262C10.926 11.2663 10.8625 11.3643 10.8261 11.393L11.0739 11.707ZM11.4796 10.0921C11.5 9.75587 11.51 9.26098 11.51 8.61H11.11C11.11 9.25902 11.1 9.74413 11.0804 10.0679L11.4796 10.0921ZM11.51 8.61V2.265H11.11V8.61H11.51ZM11.1268 2.18473L6.92682 11.7697L7.29319 11.9303L11.4932 2.34527L11.1268 2.18473ZM7.28641 11.7558L2.95141 3.64076L2.59859 3.82924L6.93359 11.9442L7.28641 11.7558ZM2.575 3.735V8.58H2.975V3.735H2.575ZM2.575 8.58C2.575 9.58151 2.61973 10.3235 2.71388 10.7942L3.10612 10.7158C3.02027 10.2865 2.975 9.57849 2.975 8.58H2.575ZM2.71497 10.7993C2.8182 11.2535 2.98843 11.6077 3.26406 11.7914L3.48594 11.4586C3.34157 11.3623 3.20181 11.1365 3.10503 10.7107L2.71497 10.7993ZM3.26973 11.7951C3.52975 11.956 3.92796 12.02 4.425 12.02V11.62C3.94204 11.62 3.64025 11.554 3.48027 11.4549L3.26973 11.7951ZM4.22772 11.8529L4.25772 12.0329L4.65228 11.9671L4.62228 11.7871L4.22772 11.8529ZM4.455 11.8H0.765V12.2H4.455V11.8ZM0.962279 12.0329L0.992279 11.8529L0.597721 11.7871L0.567721 11.9671L0.962279 12.0329ZM0.795 12.02C1.16905 12.02 1.46639 11.9952 1.67353 11.9377L1.56647 11.5523C1.41361 11.5948 1.16095 11.62 0.795 11.62V12.02ZM1.68023 11.9357C1.93562 11.8551 2.13045 11.6587 2.27586 11.3903L1.92414 11.1997C1.80955 11.4113 1.68438 11.5149 1.55977 11.5543L1.68023 11.9357ZM2.27586 11.3903C2.42407 11.1166 2.50824 10.766 2.53944 10.35L2.14056 10.32C2.11176 10.704 2.03593 10.9934 1.92414 11.1997L2.27586 11.3903ZM2.53901 10.3549C2.58002 9.94478 2.6 9.35181 2.6 8.58H2.2C2.2 9.34819 2.17998 9.92522 2.14099 10.3151L2.53901 10.3549ZM2.6 8.58V4.905H2.2V8.58H2.6ZM2.6 4.905C2.6 4.13319 2.58002 3.54022 2.53901 3.1301L2.14099 3.1699C2.17998 3.55978 2.2 4.13681 2.2 4.905H2.6ZM2.53944 3.13504C2.50824 2.71902 2.42407 2.36837 2.27586 2.09474L1.92414 2.28526C2.03593 2.49163 2.11176 2.78098 2.14056 3.16496L2.53944 3.13504ZM2.27586 2.09474C2.13008 1.82561 1.93248 1.63042 1.6709 1.56158L1.5691 1.94841C1.68752 1.97958 1.80992 2.07439 1.92414 2.28526L2.27586 2.09474ZM1.68325 1.56526C1.47163 1.49472 1.17013 1.465 0.795 1.465V1.865C1.15987 1.865 1.40837 1.89528 1.55675 1.94474L1.68325 1.56526ZM0.991774 1.62922L0.961774 1.46422L0.568226 1.53578L0.598226 1.70078L0.991774 1.62922ZM0.765 1.7H2.775V1.3H0.765V1.7ZM2.59829 1.59366L7.23329 10.3387L7.58671 10.1513L2.95171 1.40634L2.59829 1.59366ZM7.59324 10.3251L11.4182 1.58015L11.0518 1.41985L7.22676 10.1649L7.59324 10.3251ZM11.235 1.7H13.86V1.3H11.235V1.7ZM13.6632 1.46422L13.6332 1.62922L14.0268 1.70078L14.0568 1.53578L13.6632 1.46422ZM13.83 1.465C13.3124 1.465 12.8907 1.56193 12.6076 1.79581L12.8624 2.10419C13.0393 1.95807 13.3476 1.865 13.83 1.865V1.465ZM12.6064 1.79686C12.4984 1.88751 12.4297 2.03452 12.3802 2.19176C12.3283 2.35644 12.2874 2.56636 12.2554 2.81719C12.1913 3.31962 12.16 4.01192 12.16 4.89H12.56C12.56 4.01808 12.5912 3.34538 12.6521 2.8678C12.6826 2.62864 12.7198 2.44481 12.7617 2.31199C12.8059 2.17173 12.8466 2.11749 12.8636 2.10314L12.6064 1.79686ZM16.1045 5.82L15.9517 5.69091L16.1045 5.82ZM21.0395 5.82L21.1891 5.68726L21.0395 5.82ZM21.0695 11.1L20.9178 10.9697L20.9176 10.9698L21.0695 11.1ZM16.1345 11.085L15.9838 11.2166L15.9849 11.2177L16.1345 11.085ZM16.9295 10.89L16.7587 10.9941L16.7599 10.996L16.9295 10.89ZM20.2745 10.905L20.1032 10.8017L20.102 10.8037L20.2745 10.905ZM16.8995 6.015L16.7275 5.91289L16.727 5.91372L16.8995 6.015ZM15.4045 8.46C15.4045 7.45075 15.6917 6.61831 16.2573 5.94909L15.9517 5.69091C15.3173 6.44169 15.0045 7.36925 15.0045 8.46H15.4045ZM16.2573 5.94909C16.8149 5.28926 17.5712 4.955 18.5495 4.955V4.555C17.4678 4.555 16.5941 4.93074 15.9517 5.69091L16.2573 5.94909ZM18.5495 4.955C19.5278 4.955 20.3013 5.28945 20.8899 5.95274L21.1891 5.68726C20.5176 4.93055 19.6312 4.555 18.5495 4.555V4.955ZM20.8899 5.95274C21.4839 6.62217 21.7845 7.45333 21.7845 8.46H22.1845C22.1845 7.36667 21.8551 6.43783 21.1891 5.68726L20.8899 5.95274ZM21.7845 8.46C21.7845 9.4684 21.4928 10.3004 20.9178 10.9697L21.2212 11.2303C21.8662 10.4796 22.1845 9.5516 22.1845 8.46H21.7845ZM20.9176 10.9698C20.3604 11.62 19.6038 11.95 18.6245 11.95V12.35C19.7052 12.35 20.5786 11.98 21.2213 11.2302L20.9176 10.9698ZM18.6245 11.95C17.6462 11.95 16.8726 11.6156 16.2841 10.9523L15.9849 11.2177C16.6563 11.9744 17.5428 12.35 18.6245 12.35V11.95ZM16.2851 10.9534C15.7003 10.2837 15.4045 9.457 15.4045 8.46H15.0045C15.0045 9.543 15.3287 10.4663 15.9838 11.2166L16.2851 10.9534ZM16.7599 10.996C17.1949 11.6921 17.8227 12.05 18.6245 12.05V11.65C17.9662 11.65 17.464 11.3679 17.0991 10.784L16.7599 10.996ZM18.6245 12.05C19.4255 12.05 20.0411 11.6974 20.4469 11.0063L20.102 10.8037C19.7679 11.3726 19.2835 11.65 18.6245 11.65V12.05ZM20.4458 11.0083C20.85 10.3381 21.0445 9.48923 21.0445 8.475H20.6445C20.6445 9.44077 20.459 10.2119 20.1032 10.8017L20.4458 11.0083ZM21.0445 8.475C21.0445 7.4494 20.8394 6.58955 20.4141 5.909L20.0749 6.121C20.4495 6.72045 20.6445 7.5006 20.6445 8.475H21.0445ZM20.4141 5.909C19.979 5.21293 19.3512 4.855 18.5495 4.855V5.255C19.2077 5.255 19.7099 5.53707 20.0749 6.121L20.4141 5.909ZM18.5495 4.855C17.756 4.855 17.1421 5.21472 16.7275 5.91289L17.0715 6.11711C17.4169 5.53528 17.903 5.255 18.5495 5.255V4.855ZM16.727 5.91372C16.3337 6.58345 16.1445 7.43156 16.1445 8.445H16.5445C16.5445 7.47844 16.7253 6.70655 17.0719 6.11628L16.727 5.91372ZM16.1445 8.445C16.1445 9.46023 16.3444 10.3142 16.7587 10.9941L17.1003 10.7859C16.7346 10.1858 16.5445 9.40977 16.5445 8.445H16.1445ZM27.5979 5.715L27.4961 5.88722L27.4995 5.88911L27.5979 5.715ZM25.9329 6.6L25.7439 6.53439L25.7432 6.53675L25.9329 6.6ZM25.7679 11.43L25.9507 11.3487L25.9481 11.3432L25.7679 11.43ZM25.9929 11.685L25.875 11.8471L25.8855 11.8537L25.9929 11.685ZM26.3379 11.805L26.3213 12.0043L26.3379 11.805ZM26.8479 11.82L27.0452 11.7871L27.0173 11.62H26.8479V11.82ZM26.8779 12V12.2H27.114L27.0752 11.9671L26.8779 12ZM23.2329 12L23.0356 11.9671L22.9968 12.2H23.2329V12ZM23.2629 11.82V11.62H23.0935L23.0656 11.7871L23.2629 11.82ZM23.9529 11.775L23.9948 11.9708L24.0044 11.9682L23.9529 11.775ZM24.4929 10.62L24.2932 10.6075L24.293 10.6136L24.4929 10.62ZM24.4029 5.865L24.215 5.93421L24.2186 5.94261L24.4029 5.865ZM24.2079 5.415L24.0323 5.51077V5.51077L24.2079 5.415ZM23.9379 5.19L24.0012 4.99997L23.9905 4.99705L23.9379 5.19ZM23.0679 5.1L22.8711 5.13578L22.901 5.3H23.0679V5.1ZM23.0379 4.935L23.0099 4.73696L22.8039 4.76605L22.8411 4.97078L23.0379 4.935ZM25.5729 4.755H25.7729V4.555H25.5729V4.755ZM25.5729 6.96H25.3729L25.7705 6.99062L25.5729 6.96ZM26.3079 5.295L26.163 5.15716L26.1629 5.15725L26.3079 5.295ZM27.8079 4.88C28.0277 4.88 28.2122 4.92805 28.3677 5.01808L28.5681 4.67191C28.3436 4.54195 28.0881 4.48 27.8079 4.48V4.88ZM28.3677 5.01808C28.5074 5.09897 28.5529 5.1887 28.5529 5.295H28.9529C28.9529 5.0213 28.8084 4.81103 28.5681 4.67191L28.3677 5.01808ZM28.5529 5.295C28.5529 5.4392 28.5094 5.53187 28.4377 5.59757L28.708 5.89243C28.8764 5.73813 28.9529 5.5308 28.9529 5.295H28.5529ZM28.4377 5.59757C28.3512 5.67689 28.2634 5.71 28.1679 5.71V6.11C28.3724 6.11 28.5546 6.0331 28.708 5.89243L28.4377 5.59757ZM28.1679 5.71C28.0696 5.71 27.916 5.66508 27.6963 5.54089L27.4995 5.88911C27.7397 6.02492 27.9662 6.11 28.1679 6.11V5.71ZM27.6996 5.54281C27.4495 5.39503 27.1795 5.32 26.8929 5.32V5.72C27.1063 5.72 27.3062 5.77497 27.4961 5.88719L27.6996 5.54281ZM26.8929 5.32C26.6277 5.32 26.3992 5.44528 26.2109 5.65713C26.0263 5.86482 25.8731 6.1624 25.744 6.5344L26.1218 6.6656C26.2427 6.3176 26.3745 6.07518 26.5099 5.92287C26.6416 5.77472 26.7681 5.72 26.8929 5.72V5.32ZM25.7432 6.53675C25.4949 7.28154 25.3729 8.13868 25.3729 9.105H25.7729C25.7729 8.17132 25.8909 7.35846 26.1226 6.66325L25.7432 6.53675ZM25.3729 9.105C25.3729 9.74752 25.3892 10.2675 25.4223 10.663C25.4546 11.0478 25.5046 11.3442 25.5877 11.5168L25.9481 11.3432C25.9012 11.2458 25.8537 11.0197 25.8209 10.6295C25.7891 10.25 25.7729 9.74248 25.7729 9.105H25.3729ZM25.5851 11.5112C25.6438 11.6433 25.7472 11.7536 25.8753 11.8467L26.1105 11.5233C26.0186 11.4564 25.972 11.3967 25.9507 11.3488L25.5851 11.5112ZM25.8855 11.8537C26.0205 11.9397 26.1664 11.9914 26.3213 12.0043L26.3545 11.6057C26.2694 11.5986 26.1852 11.5703 26.1003 11.5163L25.8855 11.8537ZM26.3213 12.0043C26.4496 12.015 26.6261 12.02 26.8479 12.02V11.62C26.6297 11.62 26.4662 11.615 26.3545 11.6057L26.3213 12.0043ZM26.6506 11.8529L26.6806 12.0329L27.0752 11.9671L27.0452 11.7871L26.6506 11.8529ZM26.8779 11.8H23.2329V12.2H26.8779V11.8ZM23.4302 12.0329L23.4602 11.8529L23.0656 11.7871L23.0356 11.9671L23.4302 12.0329ZM23.2629 12.02C23.5841 12.02 23.8324 12.0054 23.9948 11.9706L23.911 11.5794C23.7933 11.6047 23.5817 11.62 23.2629 11.62V12.02ZM24.0044 11.9682C24.2345 11.9069 24.396 11.7222 24.5085 11.486L24.1473 11.314C24.0598 11.4978 23.9712 11.5631 23.9014 11.5818L24.0044 11.9682ZM24.5085 11.486C24.6236 11.2443 24.6822 10.9553 24.6928 10.6264L24.293 10.6136C24.2836 10.9047 24.2322 11.1357 24.1473 11.314L24.5085 11.486ZM24.6925 10.6325C24.7129 10.3058 24.7229 9.79556 24.7229 9.105H24.3229C24.3229 9.79444 24.3129 10.2942 24.2933 10.6075L24.6925 10.6325ZM24.7229 9.105V8.235H24.3229V9.105H24.7229ZM24.7229 8.235C24.7229 7.53873 24.7129 6.98985 24.6926 6.58989C24.6825 6.39009 24.6697 6.22484 24.6539 6.09569C24.6389 5.97325 24.6191 5.86318 24.5872 5.78739L24.2186 5.94261C24.2267 5.96182 24.2419 6.02175 24.2569 6.14431C24.2711 6.26016 24.2833 6.41491 24.2931 6.61011C24.3129 7.00015 24.3229 7.54126 24.3229 8.235H24.7229ZM24.5906 5.79586C24.519 5.60154 24.4501 5.44137 24.3835 5.31923L24.0323 5.51077C24.0857 5.60863 24.1468 5.74846 24.2152 5.93414L24.5906 5.79586ZM24.3835 5.31923C24.299 5.16436 24.1686 5.05609 24.0011 5.00026L23.8746 5.37974C23.9472 5.40391 23.9968 5.44564 24.0323 5.51077L24.3835 5.31923ZM23.9905 4.99705C23.7464 4.93048 23.4367 4.9 23.0679 4.9V5.3C23.4191 5.3 23.6893 5.32952 23.8853 5.38295L23.9905 4.99705ZM23.2647 5.06422L23.2347 4.89922L22.8411 4.97078L22.8711 5.13578L23.2647 5.06422ZM23.0658 5.13304C23.9068 5.01431 24.7424 4.955 25.5729 4.955V4.555C24.7233 4.555 23.869 4.61568 23.0099 4.73696L23.0658 5.13304ZM25.3729 4.755V6.96H25.7729V4.755H25.3729ZM25.7705 6.99062C25.8762 6.30879 26.1083 5.79547 26.4529 5.43275L26.1629 5.15725C25.7475 5.59453 25.4896 6.19121 25.3752 6.92938L25.7705 6.99062ZM26.4528 5.43284C26.8019 5.06585 27.2479 4.88 27.8079 4.88V4.48C27.1479 4.48 26.5939 4.70415 26.163 5.15716L26.4528 5.43284ZM35.2684 8.205V8.405H35.4684V8.205H35.2684ZM30.3484 8.205V8.005H30.1484V8.205H30.3484ZM31.0234 10.89L30.8675 11.0153L30.8686 11.0166L31.0234 10.89ZM34.8634 10.515L34.9575 10.3385L34.7833 10.2456L34.6882 10.4186L34.8634 10.515ZM35.0884 10.635L35.2662 10.7265L35.3564 10.5513L35.1825 10.4585L35.0884 10.635ZM30.1684 11.175L30.0259 11.3153L30.1684 11.175ZM30.0484 5.82L29.8924 5.69479L29.8914 5.69614L30.0484 5.82ZM34.5034 5.73L34.346 5.85346L34.347 5.85464L34.5034 5.73ZM30.9784 5.805L30.813 5.69254L30.8125 5.69328L30.9784 5.805ZM30.3784 7.77L30.1791 7.75299L30.1606 7.97H30.3784V7.77ZM34.1134 7.77V7.97H34.3213L34.3132 7.76227L34.1134 7.77ZM35.2684 8.005H30.3484V8.405H35.2684V8.005ZM30.1484 8.205V8.46H30.5484V8.205H30.1484ZM30.1484 8.46C30.1484 9.54466 30.3782 10.4063 30.8675 11.0153L31.1793 10.7647C30.7686 10.2537 30.5484 9.49534 30.5484 8.46H30.1484ZM30.8686 11.0166C31.3539 11.6098 31.9694 11.915 32.7034 11.915V11.515C32.0974 11.515 31.5928 11.2702 31.1782 10.7634L30.8686 11.0166ZM32.7034 11.915C33.7678 11.915 34.5596 11.4824 35.0386 10.6114L34.6882 10.4186C34.2872 11.1476 33.639 11.515 32.7034 11.515V11.915ZM34.7693 10.6915L34.9943 10.8115L35.1825 10.4585L34.9575 10.3385L34.7693 10.6915ZM34.9106 10.5435C34.6657 11.019 34.3433 11.3674 33.9455 11.5983C33.5469 11.8297 33.0606 11.95 32.4784 11.95V12.35C33.1162 12.35 33.6749 12.2178 34.1463 11.9442C34.6185 11.6701 34.9911 11.261 35.2662 10.7265L34.9106 10.5435ZM32.4784 11.95C31.6328 11.95 30.9139 11.6471 30.3109 11.0347L30.0259 11.3153C30.7029 12.0029 31.524 12.35 32.4784 12.35V11.95ZM30.3109 11.0347C29.7151 10.4296 29.4084 9.60902 29.4084 8.55H29.0084C29.0084 9.69098 29.3417 10.6204 30.0259 11.3153L30.3109 11.0347ZM29.4084 8.55C29.4084 7.47444 29.6791 6.61112 30.2054 5.94386L29.8914 5.69614C29.2977 6.44888 29.0084 7.40556 29.0084 8.55H29.4084ZM30.2044 5.94521C30.735 5.28424 31.4318 4.955 32.3134 4.955V4.555C31.315 4.555 30.5018 4.93576 29.8924 5.69479L30.2044 5.94521ZM32.3134 4.955C33.2124 4.955 33.88 5.25941 34.3461 5.85346L34.6607 5.60654C34.1068 4.90059 33.3144 4.555 32.3134 4.555V4.955ZM34.347 5.85464C34.8227 6.45156 35.0684 7.22939 35.0684 8.205H35.4684C35.4684 7.16061 35.2041 6.28844 34.6598 5.60536L34.347 5.85464ZM32.3584 4.855C31.7089 4.855 31.1884 5.14055 30.813 5.69254L31.1438 5.91746C31.4484 5.46945 31.8479 5.255 32.3584 5.255V4.855ZM30.8125 5.69328C30.4575 6.22042 30.2509 6.91174 30.1791 7.75299L30.5777 7.78701C30.6459 6.98826 30.8393 6.36958 31.1443 5.91672L30.8125 5.69328ZM30.3784 7.97H34.1134V7.57H30.3784V7.97ZM34.3132 7.76227C34.2777 6.84303 34.1112 6.12191 33.7901 5.62518C33.4598 5.11425 32.9746 4.855 32.3584 4.855V5.255C32.8422 5.255 33.1994 5.44825 33.4542 5.84232C33.7181 6.25059 33.8791 6.88697 33.9135 7.77773L34.3132 7.76227ZM45.4405 10.335H45.6405L45.2494 10.2762L45.4405 10.335ZM44.6155 11.64L44.7489 11.789L44.7491 11.7888L44.6155 11.64ZM41.8255 11.82L41.9277 11.6481L41.8255 11.82ZM40.9705 10.95L41.1454 10.8529L41.1435 10.8497L40.9705 10.95ZM41.3905 5.85L41.2442 5.71368L41.3905 5.85ZM45.4855 4.935L45.4293 5.12695L45.6855 5.20193V4.935H45.4855ZM45.4105 1.995L45.2138 2.03142L45.2141 2.03277L45.4105 1.995ZM45.1705 1.5L45.0675 1.67164L45.0747 1.67558L45.1705 1.5ZM44.2255 1.32L44.0287 1.35578L44.0586 1.52H44.2255V1.32ZM44.1955 1.155L44.1626 0.95772L43.9624 0.991087L43.9987 1.19078L44.1955 1.155ZM46.5355 0.975H46.7355V0.775H46.5355V0.975ZM46.6405 10.86L46.4444 10.8992L46.4446 10.9003L46.6405 10.86ZM47.8255 11.16L48.0044 11.0706L47.915 10.8917L47.7361 10.9811L47.8255 11.16ZM47.9005 11.31L48.0205 11.47L48.154 11.3699L48.0794 11.2206L47.9005 11.31ZM47.5855 11.535L47.6905 11.7056L47.6993 11.6994L47.5855 11.535ZM46.7905 11.865L46.8566 12.0538L46.7905 11.865ZM45.6355 12.075L45.4411 12.1218L45.4779 12.275H45.6355V12.075ZM41.8705 10.59L42.0585 10.5216L42.057 10.5178L41.8705 10.59ZM42.4255 11.385L42.3005 11.5412L42.3036 11.5435L42.4255 11.385ZM44.3455 11.31L44.2175 11.1563L44.2149 11.1585L44.3455 11.31ZM45.0205 10.35L44.8356 10.2736L44.8338 10.2782L45.0205 10.35ZM45.4855 5.73H45.6855V5.63317L45.6096 5.57312L45.4855 5.73ZM42.8005 5.55L42.9092 5.71791L42.8005 5.55ZM42.0205 6.42L42.1989 6.51051L42.1994 6.50944L42.0205 6.42ZM45.2494 10.2762C45.0996 10.7629 44.8439 11.1663 44.4819 11.4912L44.7491 11.7888C45.1672 11.4137 45.4614 10.9471 45.6317 10.3938L45.2494 10.2762ZM44.4821 11.491C44.1425 11.7948 43.7215 11.95 43.2055 11.95V12.35C43.8095 12.35 44.3285 12.1652 44.7489 11.789L44.4821 11.491ZM43.2055 11.95C42.6817 11.95 42.2593 11.8453 41.9277 11.6481L41.7233 11.9919C42.1317 12.2347 42.6294 12.35 43.2055 12.35V11.95ZM41.9277 11.6481C41.5867 11.4453 41.3274 11.1805 41.1453 10.8529L40.7957 11.0471C41.0136 11.4395 41.3243 11.7547 41.7233 11.9919L41.9277 11.6481ZM41.1435 10.8497C40.765 10.1967 40.5705 9.39319 40.5705 8.43H40.1705C40.1705 9.44681 40.376 10.3233 40.7975 11.0503L41.1435 10.8497ZM40.5705 8.43C40.5705 7.49102 40.891 6.67962 41.5369 5.98632L41.2442 5.71368C40.53 6.48038 40.1705 7.38898 40.1705 8.43H40.5705ZM41.5369 5.98632C42.1735 5.30289 43.0273 4.955 44.1205 4.955V4.555C42.9337 4.555 41.9675 4.93711 41.2442 5.71368L41.5369 5.98632ZM44.1205 4.955C44.6046 4.955 45.0404 5.01311 45.4293 5.12695L45.5417 4.74305C45.1106 4.61689 44.6364 4.555 44.1205 4.555V4.955ZM45.6855 4.935V3.51H45.2855V4.935H45.6855ZM45.6855 3.51C45.6855 2.76243 45.6611 2.23879 45.6069 1.95723L45.2141 2.03277C45.26 2.27121 45.2855 2.75757 45.2855 3.51H45.6855ZM45.6072 1.95858C45.5803 1.81378 45.5436 1.68598 45.493 1.58149C45.4428 1.47808 45.3713 1.38168 45.2663 1.32442L45.0747 1.67558C45.0798 1.67832 45.1032 1.69442 45.133 1.756C45.1624 1.81652 45.1907 1.90621 45.2139 2.03142L45.6072 1.95858ZM45.2734 1.3285C45.0258 1.17992 44.6657 1.12 44.2255 1.12V1.52C44.6453 1.52 44.9152 1.58008 45.0676 1.6715L45.2734 1.3285ZM44.4223 1.28422L44.3923 1.11922L43.9987 1.19078L44.0287 1.35578L44.4223 1.28422ZM44.2284 1.35228C44.936 1.23434 45.7049 1.175 46.5355 1.175V0.775C45.6861 0.775 44.895 0.835663 44.1626 0.95772L44.2284 1.35228ZM46.3355 0.975V8.67H46.7355V0.975H46.3355ZM46.3355 8.67C46.3355 9.77608 46.3698 10.5264 46.4444 10.8992L46.8366 10.8208C46.7712 10.4936 46.7355 9.78392 46.7355 8.67H46.3355ZM46.4446 10.9003C46.4842 11.0925 46.5567 11.2615 46.6791 11.3839C46.8064 11.5112 46.9696 11.57 47.1505 11.57V11.17C47.0614 11.17 47.0047 11.1438 46.9619 11.1011C46.9143 11.0535 46.8668 10.9675 46.8364 10.8197L46.4446 10.9003ZM47.1505 11.57C47.3678 11.57 47.6268 11.483 47.915 11.3389L47.7361 10.9811C47.4642 11.117 47.2732 11.17 47.1505 11.17V11.57ZM47.6466 11.2494L47.7216 11.3994L48.0794 11.2206L48.0044 11.0706L47.6466 11.2494ZM47.7805 11.15C47.7033 11.2079 47.6006 11.2813 47.4717 11.3706L47.6993 11.6994C47.8304 11.6087 47.9377 11.5321 48.0205 11.47L47.7805 11.15ZM47.4807 11.3647C47.3718 11.4317 47.1267 11.5354 46.7244 11.6762L46.8566 12.0538C47.2543 11.9146 47.5393 11.7983 47.6903 11.7053L47.4807 11.3647ZM46.7244 11.6762C46.3426 11.8099 45.98 11.875 45.6355 11.875V12.275C46.031 12.275 46.4384 12.2001 46.8566 12.0538L46.7244 11.6762ZM45.83 12.0282C45.704 11.5052 45.6405 10.941 45.6405 10.335H45.2405C45.2405 10.969 45.307 11.5648 45.4411 12.1218L45.83 12.0282ZM41.6825 10.6583C41.8138 11.0194 42.0192 11.316 42.3006 11.5412L42.5504 11.2288C42.3319 11.054 42.1672 10.8206 42.0585 10.5217L41.6825 10.6583ZM42.3036 11.5435C42.602 11.7731 42.956 11.885 43.3555 11.885V11.485C43.0351 11.485 42.769 11.3969 42.5475 11.2265L42.3036 11.5435ZM43.3555 11.885C43.7752 11.885 44.1512 11.7416 44.4761 11.4615L44.2149 11.1585C43.9598 11.3784 43.6758 11.485 43.3555 11.485V11.885ZM44.4735 11.4636C44.8016 11.1903 45.0458 10.8413 45.2072 10.4218L44.8338 10.2782C44.6952 10.6387 44.4894 10.9297 44.2175 11.1564L44.4735 11.4636ZM45.2053 10.4264C45.5252 9.65253 45.6855 8.8516 45.6855 8.025H45.2855C45.2855 8.7984 45.1358 9.54747 44.8357 10.2736L45.2053 10.4264ZM45.6855 8.025V5.73H45.2855V8.025H45.6855ZM45.6096 5.57312C45.1471 5.20743 44.634 5.02 44.0755 5.02V5.42C44.537 5.42 44.964 5.57257 45.3615 5.88688L45.6096 5.57312ZM44.0755 5.02C43.5369 5.02 43.0717 5.13632 42.6919 5.38209L42.9092 5.71791C43.2093 5.52368 43.5941 5.42 44.0755 5.42V5.02ZM42.6919 5.38209C42.3221 5.62137 42.0377 5.93839 41.8416 6.33056L42.1994 6.50944C42.3633 6.18161 42.599 5.91863 42.9092 5.71791L42.6919 5.38209ZM41.8422 6.32949C41.4878 7.02787 41.3105 7.77393 41.3105 8.565H41.7105C41.7105 7.83607 41.8733 7.15212 42.1989 6.51051L41.8422 6.32949ZM41.3105 8.565C41.3105 9.31727 41.4342 10.017 41.684 10.6622L42.057 10.5178C41.8268 9.92299 41.7105 9.27273 41.7105 8.565H41.3105ZM54.8534 8.205V8.405H55.0534V8.205H54.8534ZM49.9334 8.205V8.005H49.7334V8.205H49.9334ZM50.6084 10.89L50.4525 11.0153L50.4536 11.0166L50.6084 10.89ZM54.4484 10.515L54.5425 10.3385L54.3683 10.2456L54.2731 10.4186L54.4484 10.515ZM54.6734 10.635L54.8512 10.7265L54.9414 10.5513L54.7675 10.4585L54.6734 10.635ZM49.7534 11.175L49.6108 11.3153L49.7534 11.175ZM49.6334 5.82L49.4774 5.69479L49.4763 5.69614L49.6334 5.82ZM54.0884 5.73L53.931 5.85346L53.9319 5.85464L54.0884 5.73ZM50.5634 5.805L50.398 5.69254L50.3975 5.69328L50.5634 5.805ZM49.9634 7.77L49.7641 7.75299L49.7456 7.97H49.9634V7.77ZM53.6984 7.77V7.97H53.9062L53.8982 7.76227L53.6984 7.77ZM54.8534 8.005H49.9334V8.405H54.8534V8.005ZM49.7334 8.205V8.46H50.1334V8.205H49.7334ZM49.7334 8.46C49.7334 9.54466 49.9631 10.4063 50.4525 11.0153L50.7643 10.7647C50.3536 10.2537 50.1334 9.49534 50.1334 8.46H49.7334ZM50.4536 11.0166C50.9389 11.6098 51.5543 11.915 52.2884 11.915V11.515C51.6824 11.515 51.1778 11.2702 50.7631 10.7634L50.4536 11.0166ZM52.2884 11.915C53.3528 11.915 54.1445 11.4824 54.6236 10.6114L54.2731 10.4186C53.8722 11.1476 53.2239 11.515 52.2884 11.515V11.915ZM54.3542 10.6915L54.5792 10.8115L54.7675 10.4585L54.5425 10.3385L54.3542 10.6915ZM54.4955 10.5435C54.2507 11.019 53.9283 11.3674 53.5305 11.5983C53.1318 11.8297 52.6456 11.95 52.0634 11.95V12.35C52.7011 12.35 53.2599 12.2178 53.7313 11.9442C54.2035 11.6701 54.576 11.261 54.8512 10.7265L54.4955 10.5435ZM52.0634 11.95C51.2178 11.95 50.4989 11.6471 49.8959 11.0347L49.6108 11.3153C50.2879 12.0029 51.109 12.35 52.0634 12.35V11.95ZM49.8959 11.0347C49.3001 10.4296 48.9934 9.60902 48.9934 8.55H48.5934C48.5934 9.69098 48.9266 10.6204 49.6108 11.3153L49.8959 11.0347ZM48.9934 8.55C48.9934 7.47444 49.2641 6.61112 49.7904 5.94386L49.4763 5.69614C48.8826 6.44888 48.5934 7.40556 48.5934 8.55H48.9934ZM49.7893 5.94521C50.32 5.28424 51.0167 4.955 51.8984 4.955V4.555C50.9 4.555 50.0868 4.93576 49.4774 5.69479L49.7893 5.94521ZM51.8984 4.955C52.7973 4.955 53.4649 5.25941 53.931 5.85346L54.2457 5.60654C53.6918 4.90059 52.8994 4.555 51.8984 4.555V4.955ZM53.9319 5.85464C54.4076 6.45156 54.6534 7.22939 54.6534 8.205H55.0534C55.0534 7.16061 54.7891 6.28844 54.2448 5.60536L53.9319 5.85464ZM51.9434 4.855C51.2938 4.855 50.7733 5.14055 50.398 5.69254L50.7287 5.91746C51.0334 5.46945 51.4329 5.255 51.9434 5.255V4.855ZM50.3975 5.69328C50.0425 6.22042 49.8359 6.91174 49.7641 7.75299L50.1626 7.78701C50.2308 6.98826 50.4243 6.36958 50.7292 5.91672L50.3975 5.69328ZM49.9634 7.97H53.6984V7.57H49.9634V7.97ZM53.8982 7.76227C53.8627 6.84303 53.6962 6.12191 53.3751 5.62518C53.0448 5.11425 52.5595 4.855 51.9434 4.855V5.255C52.4272 5.255 52.7844 5.44825 53.0391 5.84232C53.3031 6.25059 53.4641 6.88697 53.4985 7.77773L53.8982 7.76227ZM58.2455 4.905H58.0455V5.105H58.2455V4.905ZM60.0905 4.905H60.2905V4.705H60.0905V4.905ZM60.0905 5.235V5.435H60.2905V5.235H60.0905ZM58.2455 5.235V5.035H58.0455V5.235H58.2455ZM58.3955 11.46L58.2368 11.582L58.2418 11.588L58.3955 11.46ZM60.0605 11.325L60.2572 11.2892L60.2123 11.0423L59.9817 11.1412L60.0605 11.325ZM60.0905 11.49L60.1969 11.6593L60.3114 11.5873L60.2872 11.4542L60.0905 11.49ZM57.4505 11.895L57.5919 11.7536L57.4505 11.895ZM57.1955 5.235H57.3955V5.035H57.1955V5.235ZM56.2955 5.235H56.0955V5.435H56.2955V5.235ZM56.2955 4.905V4.705H56.0955V4.905H56.2955ZM57.4205 4.455L57.2574 4.33925L57.2566 4.34031L57.4205 4.455ZM57.9155 3.09L57.8974 2.89082L57.7461 2.90457L57.7187 3.05393L57.9155 3.09ZM58.2455 3.06H58.4455V2.84099L58.2274 2.86082L58.2455 3.06ZM58.2455 5.105H60.0905V4.705H58.2455V5.105ZM59.8905 4.905V5.235H60.2905V4.905H59.8905ZM60.0905 5.035H58.2455V5.435H60.0905V5.035ZM58.0455 5.235V10.95H58.4455V5.235H58.0455ZM58.0455 10.95C58.0455 11.1916 58.1033 11.4082 58.2369 11.5819L58.554 11.3381C58.4876 11.2518 58.4455 11.1284 58.4455 10.95H58.0455ZM58.2418 11.588C58.3809 11.7549 58.5678 11.84 58.7855 11.84V11.44C58.6832 11.44 58.6101 11.4051 58.5491 11.332L58.2418 11.588ZM58.7855 11.84C59.1823 11.84 59.6353 11.7248 60.1393 11.5088L59.9817 11.1412C59.5057 11.3452 59.1086 11.44 58.7855 11.44V11.84ZM59.8637 11.3608L59.8937 11.5258L60.2872 11.4542L60.2572 11.2892L59.8637 11.3608ZM59.984 11.3207C59.3002 11.7505 58.7178 11.95 58.2305 11.95V12.35C58.8231 12.35 59.4807 12.1095 60.1969 11.6593L59.984 11.3207ZM58.2305 11.95C57.9093 11.95 57.7102 11.8719 57.5919 11.7536L57.309 12.0364C57.5308 12.2581 57.8516 12.35 58.2305 12.35V11.95ZM57.5919 11.7536C57.4791 11.6408 57.3955 11.4136 57.3955 11.01H56.9955C56.9955 11.4464 57.0818 11.8092 57.309 12.0364L57.5919 11.7536ZM57.3955 11.01V5.235H56.9955V11.01H57.3955ZM57.1955 5.035H56.2955V5.435H57.1955V5.035ZM56.4955 5.235V4.905H56.0955V5.235H56.4955ZM56.2955 5.105C56.868 5.105 57.3214 4.94529 57.5843 4.56969L57.2566 4.34031C57.0995 4.56471 56.8029 4.705 56.2955 4.705V5.105ZM57.5836 4.57075C57.8276 4.22685 57.9998 3.73937 58.1122 3.12606L57.7187 3.05393C57.6112 3.64063 57.4533 4.06315 57.2574 4.33925L57.5836 4.57075ZM57.9336 3.28918L58.2636 3.25918L58.2274 2.86082L57.8974 2.89082L57.9336 3.28918ZM58.0455 3.06V4.905H58.4455V3.06H58.0455ZM66.6805 10.86L66.4844 10.8992L66.4846 10.9003L66.6805 10.86ZM67.8655 11.16L68.0444 11.0706L67.9549 10.8917L67.7761 10.9811L67.8655 11.16ZM67.9405 11.31L68.0605 11.47L68.194 11.3699L68.1194 11.2206L67.9405 11.31ZM67.6255 11.535L67.7305 11.7056L67.7393 11.6994L67.6255 11.535ZM66.8305 11.865L66.8966 12.0538L66.8305 11.865ZM65.6755 12.075L65.4809 12.1213L65.5175 12.275H65.6755V12.075ZM65.5255 10.065H65.7255L65.337 9.99812L65.5255 10.065ZM64.6555 11.58L64.5085 11.4443L64.5084 11.4445L64.6555 11.58ZM61.6855 11.655L61.5481 11.8005L61.5524 11.8043L61.6855 11.655ZM65.5255 7.845L65.5262 8.045L65.7255 8.04432V7.845H65.5255ZM65.2105 5.655L65.0355 5.75174V5.75174L65.2105 5.655ZM63.2605 5.325L63.3854 5.48117L63.2605 5.325ZM62.8555 5.85L62.6677 5.78081L62.6654 5.78785L62.8555 5.85ZM62.3455 5.13L62.2561 4.95111L62.3455 5.13ZM65.9005 5.37L65.7658 5.51785L65.7676 5.51948L65.9005 5.37ZM62.5705 11.31L62.409 11.428L62.4113 11.431L62.5705 11.31ZM64.6105 11.085L64.7629 11.2145L64.7645 11.2127L64.6105 11.085ZM65.3005 9.735L65.1069 9.68467L65.1062 9.68743L65.3005 9.735ZM65.5255 8.19L65.7254 8.19754L65.7333 7.98812L65.5237 7.99001L65.5255 8.19ZM63.0655 8.805L62.945 8.64536L62.9436 8.64647L63.0655 8.805ZM66.3755 7.155V8.67H66.7755V7.155H66.3755ZM66.3755 8.67C66.3755 9.77608 66.4098 10.5264 66.4844 10.8992L66.8766 10.8208C66.8112 10.4936 66.7755 9.78392 66.7755 8.67H66.3755ZM66.4846 10.9003C66.5242 11.0925 66.5967 11.2615 66.7191 11.3839C66.8464 11.5112 67.0096 11.57 67.1905 11.57V11.17C67.1014 11.17 67.0447 11.1438 67.0019 11.1011C66.9543 11.0535 66.9068 10.9675 66.8764 10.8197L66.4846 10.9003ZM67.1905 11.57C67.4078 11.57 67.6668 11.483 67.9549 11.3389L67.7761 10.9811C67.5042 11.117 67.3132 11.17 67.1905 11.17V11.57ZM67.6866 11.2494L67.7616 11.3994L68.1194 11.2206L68.0444 11.0706L67.6866 11.2494ZM67.8205 11.15C67.7433 11.2079 67.6406 11.2813 67.5117 11.3706L67.7393 11.6994C67.8704 11.6087 67.9777 11.5321 68.0605 11.47L67.8205 11.15ZM67.5207 11.3647C67.4118 11.4317 67.1667 11.5354 66.7644 11.6762L66.8966 12.0538C67.2943 11.9146 67.5793 11.7983 67.7303 11.7053L67.5207 11.3647ZM66.7644 11.6762C66.3826 11.8099 66.02 11.875 65.6755 11.875V12.275C66.071 12.275 66.4784 12.2001 66.8966 12.0538L66.7644 11.6762ZM65.8701 12.0287C65.7758 11.6329 65.7255 10.9828 65.7255 10.065H65.3255C65.3255 10.9872 65.3752 11.6771 65.4809 12.1213L65.8701 12.0287ZM65.337 9.99812C65.124 10.5985 64.8464 11.0784 64.5085 11.4443L64.8025 11.7157C65.1847 11.3016 65.487 10.7715 65.714 10.1319L65.337 9.99812ZM64.5084 11.4445C64.2044 11.7746 63.7728 11.95 63.1855 11.95V12.35C63.8582 12.35 64.4066 12.1454 64.8026 11.7155L64.5084 11.4445ZM63.1855 11.95C62.5909 11.95 62.1429 11.795 61.8186 11.5057L61.5524 11.8043C61.9681 12.175 62.5201 12.35 63.1855 12.35V11.95ZM61.8228 11.5096C61.5097 11.2139 61.3455 10.8102 61.3455 10.275H60.9455C60.9455 10.8998 61.1413 11.4161 61.5482 11.8004L61.8228 11.5096ZM61.3455 10.275C61.3455 9.90374 61.4293 9.58798 61.5905 9.32082C61.7519 9.05328 61.9975 8.82352 62.3375 8.63489C63.0235 8.2543 64.0781 8.04996 65.5262 8.045L65.5248 7.645C64.0529 7.65004 62.9175 7.85569 62.1435 8.28511C61.7535 8.50148 61.4516 8.77672 61.248 9.11418C61.0442 9.45202 60.9455 9.84126 60.9455 10.275H61.3455ZM65.7255 7.845V7.305H65.3255V7.845H65.7255ZM65.7255 7.305C65.7255 6.57089 65.6194 5.98134 65.3856 5.55826L65.0355 5.75174C65.2216 6.08866 65.3255 6.59911 65.3255 7.305H65.7255ZM65.3856 5.55826C65.1292 5.09445 64.657 4.885 64.0405 4.885V5.285C64.564 5.285 64.8718 5.45555 65.0355 5.75174L65.3856 5.55826ZM64.0405 4.885C63.6867 4.885 63.3791 4.97398 63.1356 5.16883L63.3854 5.48117C63.5419 5.35602 63.7543 5.285 64.0405 5.285V4.885ZM63.1356 5.16883C62.9146 5.34563 62.7534 5.54872 62.6678 5.78086L63.0432 5.91914C63.0977 5.77128 63.2064 5.62437 63.3854 5.48117L63.1356 5.16883ZM62.6654 5.78785C62.5032 6.28394 62.2954 6.43 62.0905 6.43V6.83C62.5656 6.83 62.8678 6.45606 63.0456 5.91215L62.6654 5.78785ZM62.0905 6.43C61.9626 6.43 61.9016 6.39521 61.8685 6.35813C61.8316 6.31669 61.7955 6.23445 61.7955 6.075H61.3955C61.3955 6.28555 61.442 6.48081 61.57 6.62437C61.7019 6.77229 61.8884 6.83 62.0905 6.83V6.43ZM61.7955 6.075C61.7955 5.80395 61.9668 5.54297 62.435 5.30888L62.2561 4.95111C61.7242 5.21703 61.3955 5.58605 61.3955 6.075H61.7955ZM62.435 5.30888C62.9007 5.07601 63.4734 4.955 64.1605 4.955V4.555C63.4276 4.555 62.7903 4.68399 62.2561 4.95111L62.435 5.30888ZM64.1605 4.955C64.8295 4.955 65.3587 5.1469 65.7658 5.51784L66.0352 5.22216C65.5423 4.7731 64.9115 4.555 64.1605 4.555V4.955ZM65.7676 5.51948C66.1626 5.87057 66.3755 6.40325 66.3755 7.155H66.7755C66.7755 6.32675 66.5384 5.66943 66.0334 5.22052L65.7676 5.51948ZM62.0855 10.335C62.0855 10.7583 62.1891 11.127 62.409 11.428L62.732 11.192C62.5719 10.973 62.4855 10.6917 62.4855 10.335H62.0855ZM62.4113 11.431C62.6501 11.7453 63.0188 11.885 63.4705 11.885V11.485C63.1022 11.485 62.8709 11.3747 62.7297 11.189L62.4113 11.431ZM63.4705 11.885C63.9634 11.885 64.3952 11.6471 64.7629 11.2145L64.4581 10.9555C64.1458 11.3229 63.8176 11.485 63.4705 11.485V11.885ZM64.7645 11.2127C65.1227 10.7807 65.3672 10.3036 65.4948 9.78257L65.1062 9.68743C64.9939 10.1464 64.7783 10.5693 64.4566 10.9573L64.7645 11.2127ZM65.4941 9.78533C65.6278 9.27097 65.7048 8.7416 65.7254 8.19754L65.3257 8.18246C65.3062 8.6984 65.2332 9.19903 65.1069 9.68467L65.4941 9.78533ZM65.5237 7.99001C64.397 8.00016 63.5254 8.20731 62.945 8.64536L63.186 8.96464C63.6656 8.60269 64.434 8.39984 65.5273 8.38999L65.5237 7.99001ZM62.9436 8.64647C62.3777 9.08178 62.0855 9.64883 62.0855 10.335H62.4855C62.4855 9.78117 62.7133 9.32822 63.1875 8.96352L62.9436 8.64647ZM70.1653 2.955L70.3067 2.81358V2.81358L70.1653 2.955ZM71.3653 2.955L71.2239 2.81358V2.81358L71.3653 2.955ZM71.3353 4.755H71.5353V4.555H71.3353V4.755ZM71.5153 11.46L71.3363 11.5495L71.3395 11.5553L71.5153 11.46ZM72.5953 11.82L72.7926 11.7871L72.7647 11.62H72.5953V11.82ZM72.6253 12V12.2H72.8614L72.8226 11.9671L72.6253 12ZM68.9653 12L68.768 11.9671L68.7292 12.2H68.9653V12ZM68.9953 11.82V11.62H68.8259L68.798 11.7871L68.9953 11.82ZM70.0903 11.46L70.2662 11.5553L70.2678 11.5523L70.0903 11.46ZM70.1803 6.15L69.9827 6.18121L69.9838 6.18718L70.1803 6.15ZM69.9103 5.415L69.7752 5.56243L69.9103 5.415ZM68.8003 5.085L68.6035 5.12078L68.6334 5.285H68.8003V5.085ZM68.7703 4.92L68.7452 4.72158L68.5358 4.74806L68.5735 4.95578L68.7703 4.92ZM70.3067 2.81358C70.1723 2.67919 70.1103 2.52934 70.1103 2.355H69.7103C69.7103 2.64066 69.8183 2.89081 70.0239 3.09642L70.3067 2.81358ZM70.1103 2.355C70.1103 2.18066 70.1723 2.03081 70.3067 1.89642L70.0239 1.61358C69.8183 1.81919 69.7103 2.06934 69.7103 2.355H70.1103ZM70.3067 1.89642C70.4411 1.76204 70.591 1.7 70.7653 1.7V1.3C70.4797 1.3 70.2295 1.40796 70.0239 1.61358L70.3067 1.89642ZM70.7653 1.7C70.9397 1.7 71.0895 1.76204 71.2239 1.89642L71.5067 1.61358C71.3011 1.40796 71.051 1.3 70.7653 1.3V1.7ZM71.2239 1.89642C71.3583 2.03081 71.4203 2.18066 71.4203 2.355H71.8203C71.8203 2.06934 71.7123 1.81919 71.5067 1.61358L71.2239 1.89642ZM71.4203 2.355C71.4203 2.52934 71.3583 2.67919 71.2239 2.81358L71.5067 3.09642C71.7123 2.89081 71.8203 2.64066 71.8203 2.355H71.4203ZM71.2239 2.81358C71.0895 2.94796 70.9397 3.01 70.7653 3.01V3.41C71.051 3.41 71.3011 3.30204 71.5067 3.09642L71.2239 2.81358ZM70.7653 3.01C70.591 3.01 70.4411 2.94796 70.3067 2.81358L70.0239 3.09642C70.2295 3.30204 70.4797 3.41 70.7653 3.41V3.01ZM71.1353 4.755V9.525H71.5353V4.755H71.1353ZM71.1353 9.525C71.1353 10.0529 71.1504 10.4835 71.1812 10.8148C71.2111 11.1367 71.2579 11.3924 71.3364 11.5494L71.6942 11.3706C71.6527 11.2876 71.6095 11.1008 71.5795 10.7777C71.5503 10.464 71.5353 10.0471 71.5353 9.525H71.1353ZM71.3395 11.5553C71.4367 11.7348 71.6103 11.85 71.8196 11.9197C72.028 11.9892 72.2894 12.02 72.5953 12.02V11.62C72.3113 11.62 72.0976 11.5908 71.9461 11.5403C71.7953 11.49 71.7239 11.4252 71.6912 11.3647L71.3395 11.5553ZM72.398 11.8529L72.428 12.0329L72.8226 11.9671L72.7926 11.7871L72.398 11.8529ZM72.6253 11.8H68.9653V12.2H72.6253V11.8ZM69.1626 12.0329L69.1926 11.8529L68.798 11.7871L68.768 11.9671L69.1626 12.0329ZM68.9953 12.02C69.306 12.02 69.5709 11.9893 69.7815 11.92C69.9927 11.8506 70.1684 11.7357 70.2662 11.5553L69.9145 11.3647C69.8822 11.4243 69.8104 11.4894 69.6566 11.54C69.5023 11.5907 69.2846 11.62 68.9953 11.62V12.02ZM70.2678 11.5523C70.3522 11.3899 70.403 11.1289 70.4356 10.801C70.469 10.4642 70.4853 10.0281 70.4853 9.495H70.0853C70.0853 10.0219 70.0691 10.4433 70.0375 10.7615C70.0051 11.0886 69.9584 11.2801 69.9129 11.3677L70.2678 11.5523ZM70.4853 9.495V8.445H70.0853V9.495H70.4853ZM70.4853 8.445C70.4853 7.28857 70.4509 6.50444 70.3768 6.11282L69.9838 6.18718C70.0497 6.53556 70.0853 7.28143 70.0853 8.445H70.4853ZM70.3779 6.11881C70.3467 5.92137 70.3066 5.7513 70.2555 5.61229C70.2055 5.47597 70.1391 5.35337 70.0455 5.26757L69.7752 5.56243C69.8016 5.58663 69.8402 5.64153 69.8801 5.75021C69.919 5.8562 69.9539 5.99863 69.9828 6.18119L70.3779 6.11881ZM70.0455 5.26757C69.7531 4.99959 69.3244 4.885 68.8003 4.885V5.285C69.2762 5.285 69.5875 5.39041 69.7752 5.56243L70.0455 5.26757ZM68.9971 5.04922L68.9671 4.88422L68.5735 4.95578L68.6035 5.12078L68.9971 5.04922ZM68.7954 5.11842C69.6574 5.00943 70.5041 4.955 71.3353 4.955V4.555C70.4866 4.555 69.6232 4.61057 68.7452 4.72158L68.7954 5.11842ZM75.8261 0.959999H76.0261V0.759999H75.8261V0.959999ZM76.0211 11.445L75.8421 11.5345L75.8436 11.5373L76.0211 11.445ZM77.1011 11.82L77.2983 11.7871L77.2705 11.62H77.1011V11.82ZM77.1311 12V12.2H77.3671L77.3283 11.9671L77.1311 12ZM73.4561 12L73.2588 11.9671L73.22 12.2H73.4561V12ZM73.4861 11.82V11.62H73.3166L73.2888 11.7871L73.4861 11.82ZM74.5811 11.445L74.4036 11.3527L74.5811 11.445ZM74.5961 1.65L74.7735 1.55742L74.7697 1.55077L74.5961 1.65ZM74.3711 1.44L74.4784 1.27127V1.27127L74.3711 1.44ZM74.0111 1.32L73.9944 1.51931L73.9957 1.51941L74.0111 1.32ZM73.4861 1.305L73.2893 1.34078L73.3191 1.505H73.4861V1.305ZM73.4561 1.14L73.4245 0.942512L73.2227 0.974787L73.2593 1.17578L73.4561 1.14ZM75.6261 0.959999V9.39H76.0261V0.959999H75.6261ZM75.6261 9.39C75.6261 9.948 75.6424 10.4038 75.6757 10.7551C75.7082 11.0977 75.7588 11.3678 75.8422 11.5344L76.1999 11.3556C76.1533 11.2622 76.1064 11.0598 76.0739 10.7174C76.0423 10.3837 76.0261 9.94201 76.0261 9.39H75.6261ZM75.8436 11.5373C75.9395 11.7216 76.112 11.8419 76.323 11.9152C76.5323 11.9879 76.7946 12.02 77.1011 12.02V11.62C76.8175 11.62 76.6048 11.5896 76.4542 11.5373C76.3051 11.4856 76.2326 11.4184 76.1985 11.3527L75.8436 11.5373ZM76.9038 11.8529L76.9338 12.0329L77.3283 11.9671L77.2983 11.7871L76.9038 11.8529ZM77.1311 11.8H73.4561V12.2H77.1311V11.8ZM73.6533 12.0329L73.6833 11.8529L73.2888 11.7871L73.2588 11.9671L73.6533 12.0329ZM73.4861 12.02C73.7973 12.02 74.063 11.9879 74.2746 11.9155C74.4875 11.8426 74.6622 11.7225 74.7585 11.5373L74.4036 11.3527C74.3699 11.4175 74.2971 11.4849 74.145 11.537C73.9916 11.5896 73.7748 11.62 73.4861 11.62V12.02ZM74.7585 11.5373C74.8434 11.3739 74.894 11.1042 74.9264 10.7626C74.9598 10.4112 74.9761 9.95293 74.9761 9.39H74.5761C74.5761 9.94707 74.5599 10.3913 74.5282 10.7249C74.4956 11.0683 74.4487 11.2661 74.4036 11.3527L74.7585 11.5373ZM74.9761 9.39V3.66H74.5761V9.39H74.9761ZM74.9761 3.66C74.9761 3.10233 74.961 2.65065 74.9303 2.30716C74.9149 2.13546 74.8953 1.98777 74.8709 1.86578C74.8471 1.74662 74.8164 1.63991 74.7734 1.55749L74.4187 1.74251C74.4357 1.77508 74.4575 1.83837 74.4787 1.94422C74.4993 2.04723 74.5172 2.17954 74.5319 2.34284C74.5611 2.66935 74.5761 3.10767 74.5761 3.66H74.9761ZM74.7697 1.55077C74.7066 1.44031 74.6008 1.34911 74.4784 1.27127L74.2637 1.60873C74.3614 1.67089 74.4055 1.71969 74.4224 1.74923L74.7697 1.55077ZM74.4784 1.27127C74.3407 1.18364 74.1891 1.13311 74.0264 1.12059L73.9957 1.51941C74.093 1.52689 74.1814 1.55636 74.2637 1.60873L74.4784 1.27127ZM74.0277 1.12069C73.8992 1.10999 73.7176 1.105 73.4861 1.105V1.505C73.7145 1.505 73.8829 1.51001 73.9944 1.51931L74.0277 1.12069ZM73.6828 1.26922L73.6528 1.10422L73.2593 1.17578L73.2893 1.34078L73.6828 1.26922ZM73.4877 1.33749C74.2263 1.21931 75.0057 1.16 75.8261 1.16V0.759999C74.9864 0.759999 74.1858 0.820693 73.4245 0.942512L73.4877 1.33749ZM78.6581 9.765H78.8581V9.59557L78.691 9.56772L78.6581 9.765ZM79.1831 11.235L79.0459 11.3805L79.0482 11.3826L79.1831 11.235ZM81.6131 11.385L81.7314 11.5463L81.6131 11.385ZM81.6731 9.57L81.5346 9.7143L81.5375 9.71696L81.6731 9.57ZM79.6631 8.52L79.5819 8.70277L79.5837 8.70357L79.6631 8.52ZM78.7331 7.815L78.5774 7.94057L78.5799 7.94352L78.7331 7.815ZM79.0481 5.28L79.167 5.44084L79.1676 5.44041L79.0481 5.28ZM82.7081 5.175H82.9081V5.05894L82.8074 5.00135L82.7081 5.175ZM82.5281 7.095L82.4796 7.28903L82.694 7.34263L82.726 7.12396L82.5281 7.095ZM82.3481 7.05H82.1481V7.20615L82.2996 7.24403L82.3481 7.05ZM79.7831 5.49L79.6539 5.33729L79.651 5.33986L79.7831 5.49ZM79.7831 7.29L79.6476 7.43731L79.6539 7.44268L79.7831 7.29ZM80.7131 7.845L80.6362 8.02962L80.7131 7.845ZM81.7931 8.325L81.7077 8.50595L81.7137 8.50857L81.7931 8.325ZM82.7231 9.03L82.5673 9.15563L82.572 9.16099L82.7231 9.03ZM82.3631 11.625L82.2484 11.4612L82.3631 11.625ZM78.3281 11.505H78.1281V11.6036L78.2063 11.6636L78.3281 11.505ZM78.4781 9.735L78.511 9.53772L78.3099 9.50421L78.2803 9.7059L78.4781 9.735ZM78.4581 9.765C78.4581 10.45 78.6433 11.0009 79.0459 11.3805L79.3203 11.0895C79.023 10.8091 78.8581 10.38 78.8581 9.765H78.4581ZM79.0482 11.3826C79.4355 11.7368 79.8988 11.915 80.4281 11.915V11.515C79.9974 11.515 79.6307 11.3732 79.3181 11.0874L79.0482 11.3826ZM80.4281 11.915C80.9472 11.915 81.3877 11.7984 81.7314 11.5463L81.4949 11.2237C81.2386 11.4116 80.889 11.515 80.4281 11.515V11.915ZM81.7314 11.5463C82.0824 11.2889 82.2631 10.9341 82.2631 10.5H81.8631C81.8631 10.8059 81.7438 11.0411 81.4949 11.2237L81.7314 11.5463ZM82.2631 10.5C82.2631 10.0688 82.1131 9.70393 81.8088 9.42304L81.5375 9.71696C81.7532 9.91607 81.8631 10.1712 81.8631 10.5H82.2631ZM81.8116 9.42572C81.5417 9.16657 81.215 8.95872 80.835 8.80038L80.6812 9.16962C81.0212 9.31128 81.3046 9.49343 81.5346 9.71428L81.8116 9.42572ZM80.835 8.80038C80.4759 8.65074 80.1117 8.49609 79.7425 8.33643L79.5837 8.70357C79.9545 8.86391 80.3204 9.01926 80.6812 9.16962L80.835 8.80038ZM79.7444 8.33724C79.4129 8.18994 79.1273 7.9738 78.8864 7.68648L78.5799 7.94352C78.8589 8.2762 79.1933 8.53006 79.5819 8.70276L79.7444 8.33724ZM78.8888 7.68945C78.6752 7.42462 78.5581 7.05841 78.5581 6.57H78.1581C78.1581 7.12159 78.291 7.58538 78.5774 7.94055L78.8888 7.68945ZM78.5581 6.57C78.5581 6.12045 78.7521 5.74749 79.167 5.44083L78.9292 5.11916C78.4241 5.49251 78.1581 5.97955 78.1581 6.57H78.5581ZM79.1676 5.44041C79.6016 5.11722 80.0993 4.955 80.6681 4.955V4.555C80.017 4.555 79.4347 4.74278 78.9287 5.11959L79.1676 5.44041ZM80.6681 4.955C81.5206 4.955 82.1612 5.09283 82.6089 5.34865L82.8074 5.00135C82.275 4.69717 81.5557 4.555 80.6681 4.555V4.955ZM82.5081 5.175C82.5081 5.62054 82.4498 6.24933 82.3302 7.06604L82.726 7.12396C82.8465 6.30067 82.9081 5.64946 82.9081 5.175H82.5081ZM82.5766 6.90097L82.3966 6.85597L82.2996 7.24403L82.4796 7.28903L82.5766 6.90097ZM82.5481 7.05C82.5481 6.36565 82.3934 5.82241 82.0395 5.46858L81.7567 5.75142C82.0029 5.99759 82.1481 6.41435 82.1481 7.05H82.5481ZM82.0395 5.46858C81.7015 5.13051 81.2854 4.96 80.8031 4.96V5.36C81.1809 5.36 81.4948 5.48949 81.7567 5.75142L82.0395 5.46858ZM80.8031 4.96C80.3472 4.96 79.9579 5.08012 79.6539 5.33732L79.9123 5.64268C80.1283 5.45988 80.419 5.36 80.8031 5.36V4.96ZM79.651 5.33986C79.3515 5.60339 79.2081 5.96152 79.2081 6.39H79.6081C79.6081 6.05847 79.7147 5.81661 79.9153 5.64014L79.651 5.33986ZM79.2081 6.39C79.2081 6.81036 79.3526 7.1657 79.6477 7.43719L79.9185 7.14281C79.7136 6.9543 79.6081 6.70963 79.6081 6.39H79.2081ZM79.6539 7.44268C79.9317 7.67771 80.2599 7.87284 80.6362 8.02962L80.79 7.66038C80.4463 7.51716 80.1545 7.34229 79.9123 7.13732L79.6539 7.44268ZM80.6362 8.02962C80.9933 8.1784 81.3505 8.33714 81.7077 8.50585L81.8785 8.14415C81.5158 7.97286 81.153 7.8116 80.79 7.66038L80.6362 8.02962ZM81.7137 8.50857C82.0544 8.65587 82.3381 8.87111 82.5674 9.15555L82.8788 8.90445C82.6082 8.56889 82.2719 8.31413 81.8725 8.14143L81.7137 8.50857ZM82.572 9.16099C82.797 9.42061 82.9131 9.74252 82.9131 10.14H83.3131C83.3131 9.65748 83.1693 9.23939 82.8743 8.89901L82.572 9.16099ZM82.9131 10.14C82.9131 10.7185 82.692 11.1507 82.2484 11.4612L82.4778 11.7888C83.0343 11.3993 83.3131 10.8415 83.3131 10.14H82.9131ZM82.2484 11.4612C81.7918 11.7808 81.1759 11.95 80.3831 11.95V12.35C81.2303 12.35 81.9344 12.1692 82.4778 11.7888L82.2484 11.4612ZM80.3831 11.95C79.6104 11.95 78.97 11.7457 78.4499 11.3464L78.2063 11.6636C78.8063 12.1243 79.5359 12.35 80.3831 12.35V11.95ZM78.5281 11.505C78.5281 11.0176 78.5769 10.4378 78.676 9.7641L78.2803 9.7059C78.1793 10.3922 78.1281 10.9924 78.1281 11.505H78.5281ZM78.4452 9.93228L78.6252 9.96228L78.691 9.56772L78.511 9.53772L78.4452 9.93228Z" fill="#25A59E" mask="url(#path-1-outside-1_9622_57)"/>
</svg>
