<svg width="24" height="24" viewBox="0 0 24 24" fill="none" xmlns="http://www.w3.org/2000/svg">
<path fill-rule="evenodd" clip-rule="evenodd" d="M0.333496 12.0069C0.333496 5.56746 5.56998 0.333496 12.0002 0.333496C18.4303 0.333496 23.6668 5.56746 23.6668 12.0069C23.6668 18.4329 18.4303 23.6668 12.0002 23.6668C5.56998 23.6668 0.333496 18.4329 0.333496 12.0069ZM16.2792 13.1871C16.4031 13.0633 16.5608 12.872 16.5945 12.8269C16.7747 12.5906 16.8648 12.2979 16.8648 12.0064C16.8648 11.6788 16.7635 11.3749 16.572 11.1273C16.5563 11.1116 16.5256 11.0782 16.4856 11.0346C16.4107 10.9531 16.3031 10.836 16.2004 10.7334C15.277 9.74284 12.8671 8.122 11.6058 7.62674C11.4144 7.54908 10.9301 7.37911 10.6711 7.36786C10.4234 7.36786 10.1869 7.42414 9.96166 7.5367C9.68013 7.69428 9.45491 7.94191 9.33103 8.23456C9.2522 8.43716 9.12833 9.04498 9.12833 9.05623C9.00446 9.72033 8.93689 10.8009 8.93689 11.994C8.93689 13.132 9.00446 14.1664 9.10581 14.8417C9.1086 14.8445 9.11828 14.8928 9.13333 14.9679C9.17908 15.196 9.27439 15.6712 9.37608 15.866C9.62383 16.3388 10.1081 16.6314 10.6261 16.6314H10.6711C11.009 16.6202 11.7184 16.3275 11.7184 16.3162C12.9121 15.821 15.2657 14.2789 16.2117 13.2547L16.2792 13.1871Z" fill="url(#paint0_linear_9580_171)"/>
<defs>
<linearGradient id="paint0_linear_9580_171" x1="12.0002" y1="22.7335" x2="12.0002" y2="0.333496" gradientUnits="userSpaceOnUse">
<stop stop-color="white"/>
<stop offset="1" stop-color="white" stop-opacity="0.8"/>
</linearGradient>
</defs>
</svg>
